<svg width="44" height="68" viewBox="0 0 44 68" fill="none" xmlns="http://www.w3.org/2000/svg">
<circle cx="22" cy="22" r="22" fill="#AEAEAE"/>
<line x1="22.5" y1="43" x2="22.5" y2="68" stroke="#AEAEAE" stroke-width="3"/>
<circle cx="22" cy="22" r="19" fill="white"/>
<path d="M22.8999 29.179C21.9453 29.179 21.0952 29.0149 20.3494 28.6868C19.608 28.3544 19.022 27.8984 18.5916 27.3189C18.1655 26.7351 17.946 26.0618 17.9332 25.299H20.7202C20.7372 25.6186 20.8416 25.8999 21.0334 26.1428C21.2294 26.3814 21.4893 26.5668 21.8132 26.6989C22.1371 26.831 22.5014 26.897 22.9062 26.897C23.3281 26.897 23.701 26.8224 24.0249 26.6733C24.3487 26.5241 24.6023 26.3175 24.7855 26.0533C24.9688 25.7891 25.0604 25.4844 25.0604 25.1392C25.0604 24.7898 24.9624 24.4808 24.7663 24.2124C24.5746 23.9396 24.2976 23.7266 23.9354 23.5732C23.5774 23.4197 23.1513 23.343 22.657 23.343H21.4361V21.3104H22.657C23.0746 21.3104 23.4432 21.2379 23.7628 21.093C24.0866 20.9482 24.3381 20.7479 24.517 20.4922C24.696 20.2322 24.7855 19.9297 24.7855 19.5845C24.7855 19.2564 24.7067 18.9688 24.549 18.7216C24.3956 18.4702 24.1783 18.2741 23.897 18.1335C23.62 17.9929 23.2962 17.9226 22.9254 17.9226C22.5504 17.9226 22.2074 17.9908 21.8963 18.1271C21.5852 18.2592 21.3359 18.4489 21.1484 18.696C20.9609 18.9432 20.8608 19.233 20.848 19.5653H18.1953C18.2081 18.8111 18.4233 18.1463 18.8409 17.571C19.2585 16.9957 19.821 16.5462 20.5284 16.2223C21.2401 15.8942 22.0433 15.7301 22.9382 15.7301C23.8416 15.7301 24.6321 15.8942 25.3097 16.2223C25.9872 16.5504 26.5135 16.9936 26.8885 17.5518C27.2678 18.1058 27.4553 18.728 27.451 19.4183C27.4553 20.1513 27.2273 20.7628 26.767 21.2528C26.3111 21.7429 25.7166 22.054 24.9837 22.1861V22.2884C25.9467 22.4119 26.6797 22.7464 27.1825 23.2919C27.6896 23.8331 27.9411 24.5107 27.9368 25.3246C27.9411 26.0703 27.7259 26.733 27.2912 27.3125C26.8608 27.892 26.2663 28.348 25.5078 28.6804C24.7493 29.0128 23.88 29.179 22.8999 29.179Z" fill="#686868"/>
</svg>
