<svg width="44" height="68" viewBox="0 0 44 68" fill="none" xmlns="http://www.w3.org/2000/svg">
<circle cx="22" cy="22" r="22" fill="#AEAEAE"/>
<line x1="22.5" y1="43" x2="22.5" y2="68" stroke="#AEAEAE" stroke-width="3"/>
<circle cx="22" cy="22" r="19" fill="white"/>
<path d="M18.0611 28V26.0057L22.7209 21.6911C23.1172 21.3075 23.4496 20.9624 23.718 20.6555C23.9908 20.3487 24.1974 20.0483 24.3381 19.7543C24.4787 19.456 24.549 19.1342 24.549 18.7891C24.549 18.4055 24.4616 18.0753 24.2869 17.7983C24.1122 17.517 23.8736 17.3018 23.571 17.1527C23.2685 16.9993 22.9254 16.9226 22.5419 16.9226C22.1413 16.9226 21.7919 17.0036 21.4936 17.1655C21.1953 17.3274 20.9652 17.5597 20.8033 17.8622C20.6413 18.1648 20.5604 18.5249 20.5604 18.9425H17.9332C17.9332 18.0859 18.1271 17.3423 18.5149 16.7116C18.9027 16.081 19.446 15.593 20.1449 15.2479C20.8438 14.9027 21.6491 14.7301 22.5611 14.7301C23.4986 14.7301 24.3146 14.8963 25.0092 15.2287C25.7081 15.5568 26.2514 16.0128 26.6392 16.5966C27.027 17.1804 27.2209 17.8494 27.2209 18.6037C27.2209 19.098 27.1229 19.5859 26.9268 20.0675C26.7351 20.549 26.392 21.0838 25.8977 21.6719C25.4034 22.2557 24.7067 22.9567 23.8075 23.7749L21.8963 25.6477V25.7372H27.3935V28H18.0611Z" fill="#686868"/>
</svg>
